<?xml version="1.0" encoding="UTF-8" standalone="no"?>
<svg
   xmlns:dc="http://purl.org/dc/elements/1.1/"
   xmlns:cc="http://creativecommons.org/ns#"
   xmlns:rdf="http://www.w3.org/1999/02/22-rdf-syntax-ns#"
   xmlns:svg="http://www.w3.org/2000/svg"
   xmlns="http://www.w3.org/2000/svg"
   xmlns:sodipodi="http://sodipodi.sourceforge.net/DTD/sodipodi-0.dtd"
   xmlns:inkscape="http://www.inkscape.org/namespaces/inkscape"
   inkscape:version="1.0 (4035a4fb49, 2020-05-01)"
   sodipodi:docname="house.svg"
   id="svg69"
   version="1.1"
   fill="none"
   viewBox="0 0 141.93386 130.27258"
   height="34.467953mm"
   width="37.553333mm">
  <metadata
     id="metadata73">
    <rdf:RDF>
      <cc:Work
         rdf:about="">
        <dc:format>image/svg+xml</dc:format>
        <dc:type
           rdf:resource="http://purl.org/dc/dcmitype/StillImage" />
        <dc:title></dc:title>
      </cc:Work>
    </rdf:RDF>
  </metadata>
  <sodipodi:namedview
     inkscape:current-layer="svg69"
     inkscape:window-maximized="1"
     inkscape:window-y="-8"
     inkscape:window-x="-8"
     inkscape:cy="62.987087"
     inkscape:cx="40.533365"
     inkscape:zoom="2.5140187"
     fit-margin-bottom="0"
     fit-margin-right="0"
     fit-margin-left="0"
     fit-margin-top="0"
     units="mm"
     showgrid="false"
     id="namedview71"
     inkscape:window-height="705"
     inkscape:window-width="1366"
     inkscape:pageshadow="2"
     inkscape:pageopacity="0"
     guidetolerance="10"
     gridtolerance="10"
     objecttolerance="10"
     borderopacity="1"
     bordercolor="#666666"
     pagecolor="#ffffff" />
  <defs
     id="defs67">
    <clipPath
       id="clip0">
      <rect
         y="0"
         x="0"
         id="rect64"
         transform="translate(0.75,0.75)"
         fill="#ffffff"
         height="106"
         width="128" />
    </clipPath>
    <clipPath
       clipPathUnits="userSpaceOnUse"
       id="clipPath1101">
      <path
         d="M 0,500 H 500 V 0 H 0 Z"
         id="path1099" />
    </clipPath>
    <clipPath
       clipPathUnits="userSpaceOnUse"
       id="clipPath851">
      <path
         d="M 0,500 H 500 V 0 H 0 Z"
         id="path849" />
    </clipPath>
    <clipPath
       clipPathUnits="userSpaceOnUse"
       id="clipPath863">
      <path
         d="M 85.6355,94.7696 H 218.48 V 82.1335 H 85.6355 Z"
         id="path861" />
    </clipPath>
    <clipPath
       clipPathUnits="userSpaceOnUse"
       id="clipPath879">
      <path
         d="M 240.336,94.6627 H 400.043 V 82.1335 H 240.336 Z"
         id="path877" />
    </clipPath>
    <clipPath
       id="clipPath851-3"
       clipPathUnits="userSpaceOnUse">
      <path
         id="path849-4"
         d="M 0,500 H 500 V 0 H 0 Z" />
    </clipPath>
    <clipPath
       id="clipPath863-3"
       clipPathUnits="userSpaceOnUse">
      <path
         id="path861-4"
         d="M 85.6355,94.7696 H 218.48 V 82.1335 H 85.6355 Z" />
    </clipPath>
    <clipPath
       id="clipPath879-6"
       clipPathUnits="userSpaceOnUse">
      <path
         id="path877-8"
         d="M 240.336,94.6627 H 400.043 V 82.1335 H 240.336 Z" />
    </clipPath>
    <clipPath
       id="clipPath1101-3"
       clipPathUnits="userSpaceOnUse">
      <path
         id="path1099-0"
         d="M 0,500 H 500 V 0 H 0 Z" />
    </clipPath>
  </defs>
  <g
     id="g3132">
    <g
       id="g2894"
       transform="translate(9.516245,24.08408)">
      <g
         id="g761">
        <g
           clip-path="url(#clip0)"
           id="g62">
          <path
             fill-rule="evenodd"
             clip-rule="evenodd"
             d="m 42.9785,36.751 c 0,1.5813 -1.2937,2.8753 -2.8752,2.8753 H 19.5458 c -1.5813,0 -2.8753,-1.2938 -2.8753,-2.8753 V 7.04127 c 0,-1.58125 1.2938,-2.87525 2.8753,-2.87525 h 20.5575 c 1.5812,0 2.8752,1.29375 2.8752,2.87525 z"
             fill="#d68231"
             id="path2" />
          <rect
             opacity="0.1"
             x="16.67"
             y="9.1055298"
             width="15.1728"
             height="7.3014998"
             fill="#000000"
             id="rect4" />
          <rect
             opacity="0.1"
             x="27.8055"
             y="20.370501"
             width="15.1728"
             height="7.3014998"
             fill="#000000"
             id="rect6" />
          <path
             fill-rule="evenodd"
             clip-rule="evenodd"
             d="M 11.3943,38.7112 V 98.276 H 118.108 V 38.7112 L 64.7505,5.41199 Z"
             fill="#d1d3d3"
             id="path8" />
          <path
             opacity="0.1"
             fill-rule="evenodd"
             clip-rule="evenodd"
             d="M 64.7505,5.41199 11.3943,38.7112 V 50.787 L 64.7505,17.4877 118.108,50.787 V 38.7112 Z"
             fill="#000000"
             id="path10" />
          <rect
             opacity="0.1"
             x="102.934"
             y="50.257999"
             width="15.173"
             height="7.3014998"
             fill="#000000"
             id="rect12" />
          <rect
             opacity="0.1"
             x="82.175201"
             y="83.394501"
             width="15.173"
             height="7.3014998"
             fill="#000000"
             id="rect14" />
          <rect
             opacity="0.1"
             x="63.452"
             y="50.140301"
             width="15.173"
             height="7.3014998"
             fill="#000000"
             id="rect16" />
          <rect
             opacity="0.1"
             x="11.394"
             y="67.957802"
             width="15.1728"
             height="7.3014998"
             fill="#000000"
             id="rect18" />
          <rect
             opacity="0.1"
             x="23.311501"
             y="41.810699"
             width="15.173"
             height="7.3014998"
             fill="#000000"
             id="rect20" />
          <rect
             x="51.718498"
             y="62.4258"
             width="26.060699"
             height="35.8507"
             fill="#d68231"
             id="rect22" />
          <path
             fill-rule="evenodd"
             clip-rule="evenodd"
             d="m 64.7488,80.3822 c 2.8191,0 5.1045,-2.2853 5.1045,-5.1045 0,-2.8191 -2.2854,-5.1045 -5.1045,-5.1045 -2.8192,0 -5.1045,2.2854 -5.1045,5.1045 0,2.8192 2.2853,5.1045 5.1045,5.1045 z"
             fill="#ffffff"
             id="path24" />
          <path
             fill-rule="evenodd"
             clip-rule="evenodd"
             d="m 64.7487,42.9532 c 5.9951,0 10.855,-4.8599 10.855,-10.855 0,-5.995 -4.8599,-10.855 -10.855,-10.855 -5.995,0 -10.855,4.86 -10.855,10.855 0,5.9951 4.86,10.855 10.855,10.855 z"
             fill="#ffffff"
             id="path26" />
          <path
             opacity="0.2"
             fill-rule="evenodd"
             clip-rule="evenodd"
             d="m 64.7493,21.2435 c -5.9953,0 -10.8553,4.8598 -10.8553,10.855 0,0.6548 0.0613,1.2945 0.1723,1.9165 0.9057,-5.0805 5.3425,-8.9377 10.683,-8.9377 5.341,0 9.7772,3.8572 10.6827,8.9377 0.111,-0.6222 0.1723,-1.262 0.1723,-1.9165 0,-5.9952 -4.8598,-10.855 -10.855,-10.855 z"
             fill="#000000"
             id="path28" />
          <path
             fill-rule="evenodd"
             clip-rule="evenodd"
             d="m 75.604,29.942 h -8.6985 v -8.6985 h -4.313 V 29.942 H 53.894 v 4.3128 h 8.6985 v 8.6985 h 4.313 v -8.6985 h 8.6985 z"
             fill="#d68231"
             id="path30" />
          <path
             style="fill:#f03500;fill-opacity:1"
             fill-rule="evenodd"
             clip-rule="evenodd"
             d="m 64.7492,45.1098 c -7.1747,0 -13.0117,-5.837 -13.0117,-13.0113 0,-7.1742 5.837,-13.0112 13.0117,-13.0112 7.1745,0 13.0113,5.837 13.0113,13.0112 0,7.1743 -5.8368,13.0113 -13.0113,13.0113 z m 0,-21.71 c -4.7967,0 -8.6987,3.9022 -8.6987,8.6985 0,4.7962 3.9022,8.6985 8.6987,8.6985 4.7965,0 8.6985,-3.9023 8.6985,-8.6985 0,-4.7963 -3.902,-8.6985 -8.6985,-8.6985 z"
             fill="#FFB819"
             id="path32" />
          <rect
             opacity="0.1"
             x="51.718498"
             y="62.4258"
             width="26.060699"
             height="4.53125"
             fill="#000000"
             id="rect34" />
          <rect
             x="20.7957"
             y="53.866501"
             width="18.6478"
             height="21.075001"
             fill="#ffffff"
             id="rect36" />
          <rect
             opacity="0.2"
             x="20.7957"
             y="53.866501"
             width="18.6478"
             height="4.6462498"
             fill="#000000"
             id="rect38" />
          <rect
             x="20.7957"
             y="62.247501"
             width="18.6478"
             height="4.3127499"
             fill="#d68231"
             id="rect40" />
          <rect
             x="90.058998"
             y="53.866501"
             width="18.6478"
             height="21.075001"
             fill="#ffffff"
             id="rect44" />
          <rect
             opacity="0.2"
             x="90.058998"
             y="53.866501"
             width="18.6478"
             height="4.6462498"
             fill="#000000"
             id="rect46" />
          <rect
             x="90.058998"
             y="62.247501"
             width="18.6478"
             height="4.3127499"
             fill="#d68231"
             id="rect48" />
          <path
             style="fill:#f03500;fill-opacity:1"
             fill-rule="evenodd"
             clip-rule="evenodd"
             d="M 108.707,77.0983 H 90.059 c -1.191,0 -2.1565,-0.9653 -2.1565,-2.1565 V 53.8663 c 0,-1.1913 0.9655,-2.1565 2.1565,-2.1565 h 18.648 c 1.191,0 2.156,0.9652 2.156,2.1565 v 21.0755 c 0,1.191 -0.965,2.1565 -2.156,2.1565 z M 92.215,72.7853 H 106.55 V 56.0228 H 92.215 Z"
             fill="#FFB819"
             id="path50" />
          <path
             fill-rule="evenodd"
             clip-rule="evenodd"
             d="m 128.75,104.769 c 0,0.781 -0.638,1.419 -1.418,1.419 H 2.16825 c -0.78,0 -1.41825,-0.638 -1.41825,-1.419 v -5.075 c 0,-0.78 0.63825,-1.418 1.41825,-1.418 H 127.332 c 0.78,0 1.418,0.638 1.418,1.418 z"
             fill="#00ad68"
             id="path52" />
          <rect
             x="43.5098"
             y="98.276497"
             width="42.474998"
             height="7.9120002"
             fill="#333e48"
             id="rect54" />
          <path
             style="fill:#f03500;fill-opacity:1"
             fill-rule="evenodd"
             clip-rule="evenodd"
             d="m 123.176,46.4113 c -0.83,0 -1.67,-0.2245 -2.427,-0.6963 L 64.7505,10.8318 8.75225,45.715 c -2.1565,1.3443 -4.9935,0.6843 -6.337,-1.472 -1.3435,-2.1562 -0.684,-4.9935 1.4725,-6.3372 L 62.318,1.50751 c 1.489,-0.927495 3.3758,-0.927495 4.8648,0 L 125.614,37.906 c 2.156,1.3435 2.815,4.1808 1.472,6.3373 -0.872,1.3992 -2.374,2.168 -3.91,2.168 z"
             fill="#FFB819"
             id="path56" />
          <path
             fill-rule="evenodd"
             clip-rule="evenodd"
             d="m 124.331,98.276 c 0,-9.435 -7.649,-17.0833 -17.083,-17.0833 -9.4352,0 -17.084,7.6485 -17.084,17.0833 z"
             fill="#218649"
             id="path58" />
          <path
             fill-rule="evenodd"
             clip-rule="evenodd"
             d="m 5.1675,98.276 c 0,-9.435 7.6485,-17.0833 17.0835,-17.0833 9.435,0 17.0832,7.6485 17.0832,17.0833 z"
             fill="#218649"
             id="path60" />
        </g>
        <path
           style="fill:#f03500;fill-opacity:1"
           id="path50-1"
           fill="#ffb819"
           d="m 41.600501,76.494328 h -18.648 c -1.191,0 -2.1565,-0.9653 -2.1565,-2.1565 v -21.0755 c 0,-1.1913 0.9655,-2.1565 2.1565,-2.1565 h 18.648 c 1.191,0 2.156,0.9652 2.156,2.1565 v 21.0755 c 0,1.191 -0.965,2.1565 -2.156,2.1565 z m -16.492,-4.313 h 14.335 v -16.7625 h -14.335 z"
           clip-rule="evenodd"
           fill-rule="evenodd" />
      </g>
      <g
         transform="matrix(-0.10057278,0,0,-0.10057278,62.13276,107.15519)"
         id="g845">
        <g
           id="g847"
           clip-path="url(#clipPath851-3)">
          <g
             id="g853"
             transform="translate(452.0508,261)" />
          <g
             id="g857">
            <g
               id="g859" />
            <g
               id="g871">
              <g
                 clip-path="url(#clipPath863-3)"
                 opacity="0.199997"
                 id="g869">
                <g
                   transform="translate(133.4819,94.6396)"
                   id="g867">
                  <path
                     d="m 0,0 c -11.237,-0.205 -61.901,-1.63 -44.087,-8.785 17.815,-7.154 120.485,-2.179 127.816,0 C 91.061,-6.606 67.061,1.228 0,0"
                     style="fill:#00052a;fill-opacity:1;fill-rule:nonzero;stroke:none"
                     id="path865" />
                </g>
              </g>
            </g>
          </g>
          <g
             id="g873">
            <g
               id="g875" />
            <g
               id="g887">
              <g
                 clip-path="url(#clipPath879-6)"
                 opacity="0.199997"
                 id="g885">
                <g
                   transform="translate(298.1768,94.6396)"
                   id="g883">
                  <path
                     d="m 0,0 c -13.583,0.259 -74.832,-1.63 -53.296,-8.785 21.535,-7.154 145.651,-2.179 154.515,0 C 110.082,-6.606 25.437,-0.484 0,0"
                     style="fill:#00052a;fill-opacity:1;fill-rule:nonzero;stroke:none"
                     id="path881" />
                </g>
              </g>
            </g>
          </g>
          <g
             id="g889"
             transform="translate(138.1489,101.7148)">
            <path
               d="m 0,0 c -26.926,0 -48.754,21.828 -48.754,48.754 0,26.926 21.828,48.754 48.754,48.754 26.926,0 48.754,-21.828 48.754,-48.754 C 48.754,21.828 26.926,0 0,0 m 0,102.46 c -29.661,0 -53.706,-24.045 -53.706,-53.706 0,-29.661 24.045,-53.706 53.706,-53.706 29.662,0 53.707,24.045 53.707,53.706 0,29.661 -24.045,53.706 -53.707,53.706"
               style="fill:#00b8e9;fill-opacity:1;fill-rule:nonzero;stroke:none"
               id="path891" />
          </g>
          <g
             id="g893"
             transform="translate(170.4575,107.5713)">
            <path
               d="M 0,0 C -23.691,-17.844 -57.362,-13.103 -75.206,10.589 -93.049,34.28 -88.309,67.951 -64.617,85.795 -40.925,103.639 -7.254,98.897 10.589,75.206 28.433,51.515 23.692,17.844 0,0 M -68.839,91.4 C -95.626,71.225 -100.987,33.154 -80.812,6.367 -60.636,-20.421 -22.565,-25.781 4.222,-5.605 31.01,14.569 36.37,52.641 16.194,79.428 -3.981,106.215 -42.052,111.575 -68.839,91.4"
               style="fill:#171743;fill-opacity:1;fill-rule:nonzero;stroke:none"
               id="path895" />
          </g>
          <g
             id="g897"
             transform="translate(192.8686,188.1787)">
            <path
               d="m 0,0 c -1.062,0 -2.11,0.481 -2.798,1.395 -10.446,13.869 -25.666,22.839 -42.859,25.26 -17.196,2.419 -34.299,-1.999 -48.168,-12.445 -1.543,-1.16 -3.738,-0.855 -4.901,0.69 -1.163,1.544 -0.854,3.739 0.69,4.902 15.362,11.569 34.311,16.469 53.355,13.784 C -25.637,30.905 -8.777,20.968 2.793,5.605 3.956,4.062 3.647,1.867 2.103,0.704 1.473,0.229 0.733,0 0,0"
               style="fill:#00b8e9;fill-opacity:1;fill-rule:nonzero;stroke:none"
               id="path899" />
          </g>
          <g
             id="g901"
             transform="translate(229.9009,164.2637)">
            <path
               d="m 0,0 c -0.84,-7.595 -0.062,-24.877 -5.769,-31.839 -2.373,-2.894 -3.328,-6.059 -5.283,-6.354 -3.994,-0.604 -7.948,-2.543 -6.891,-5.43 1.057,-2.887 15.217,-0.769 20.283,0.596 5.065,1.363 1.944,8.322 4.78,11.08 2.837,2.758 8.438,6.569 1.112,11.824 l 5.133,16.364 z"
               style="fill:#fc8843;fill-opacity:1;fill-rule:nonzero;stroke:none"
               id="path903" />
          </g>
          <g
             id="g905"
             transform="translate(238.1328,144.1406)">
            <path
               d="m 0,0 0.796,2.538 c 0,0 -2.413,0.319 -2.788,-2.538 -0.375,-2.857 -5.25,-3.586 -6.125,-2.409 -0.875,1.177 -3.25,3.871 -3.875,-0.538 -0.625,-4.41 -0.605,-6.623 -0.605,-6.623 0,0 -4.853,-5.824 -5.77,-7.162 -0.917,-1.338 -7.875,1 -8.75,-7.375 0,0 1.913,-2.52 13.956,-0.198 12.044,2.323 9.905,1.684 10.47,6.193 0.565,4.508 -0.475,4.88 3.487,7.505 C 4.758,-7.982 6.367,-3.143 0,0"
               style="fill:#000318;fill-opacity:1;fill-rule:nonzero;stroke:none"
               id="path907" />
          </g>
          <g
             id="g909"
             transform="translate(238.853,138.5986)">
            <path
               d="m 0,0 c 0,-1.139 -0.923,-2.062 -2.062,-2.062 -1.138,0 -2.061,0.923 -2.061,2.062 0,1.139 0.923,2.062 2.061,2.062 C -0.923,2.062 0,1.139 0,0"
               style="fill:#ff9800;fill-opacity:1;fill-rule:nonzero;stroke:none"
               id="path911" />
          </g>
          <g
             id="g913"
             transform="translate(228.1992,129.7519)">
            <path
               d="m 0,0 -4.464,1.661 c -0.544,0.202 -0.824,0.814 -0.621,1.359 0.202,0.543 0.814,0.824 1.358,0.621 L 0.736,1.979 C 1.281,1.777 1.561,1.166 1.358,0.622 1.155,0.077 0.544,-0.202 0,0"
               style="fill:#ff9800;fill-opacity:1;fill-rule:nonzero;stroke:none"
               id="path915" />
          </g>
          <g
             id="g917"
             transform="translate(225.2886,126.9375)">
            <path
               d="m 0,0 -4.463,1.66 c -0.545,0.203 -0.825,0.814 -0.622,1.359 0.202,0.543 0.814,0.824 1.358,0.621 L 0.737,1.979 C 1.281,1.776 1.561,1.165 1.358,0.621 1.156,0.076 0.544,-0.203 0,0"
               style="fill:#ff9800;fill-opacity:1;fill-rule:nonzero;stroke:none"
               id="path919" />
          </g>
          <g
             id="g921"
             transform="translate(211.0156,120.0332)">
            <path
               d="m 0,0 c 0,0 -0.625,-0.817 0,-2.314 0.625,-1.499 19.875,-0.915 23.375,1.481 3.5,2.395 2.25,9.083 3.312,10.77 1.063,1.688 9.206,6.088 4.509,10.169 0,0 -0.488,-3.772 -4.571,-6.689 C 22.351,10.364 23.996,4.229 23.417,3.25 22.837,2.271 20.877,-0.833 0,0"
               style="fill:#ff9800;fill-opacity:1;fill-rule:nonzero;stroke:none"
               id="path923" />
          </g>
          <g
             id="g925"
             transform="translate(210.7427,118.8525)">
            <path
               d="m 0,0 c 0,0 8.856,-0.514 14.773,0 5.916,0.515 10,1.348 10.333,5.931 0.333,4.584 0.333,5.75 2.083,7.417 1.75,1.667 4.25,3.464 5.334,6.69"
               style="fill:none;stroke:#ffffff;stroke-width:1;stroke-linecap:round;stroke-linejoin:round;stroke-miterlimit:10;stroke-dasharray:none;stroke-opacity:1"
               id="path927" />
          </g>
          <g
             id="g929"
             transform="translate(227.3159,164.9902)">
            <path
               d="m 0,0 2.585,-0.727 13.365,-3.758 3.303,-0.93 c 0,0 13.805,43.085 17.335,50.608 L 13.226,64.689 Z"
               style="fill:#005fae;fill-opacity:1;fill-rule:nonzero;stroke:none"
               id="path931" />
          </g>
          <g
             id="g933"
             transform="translate(253.2715,218.7764)">
            <path
               d="M 0,0 -12.729,-57.506"
               style="fill:none;stroke:#00052a;stroke-width:1;stroke-linecap:round;stroke-linejoin:round;stroke-miterlimit:10;stroke-dasharray:none;stroke-opacity:1"
               id="path935" />
          </g>
          <g
             id="g937"
             transform="translate(293.6045,240.0273)">
            <path
               d="m 0,0 h -3.823 c -2.509,0 -4.544,2.034 -4.544,4.544 v 9.82 c 0,2.51 2.035,4.545 4.544,4.545 H 0 c 2.51,0 4.545,-2.035 4.545,-4.545 V 4.544 C 4.545,2.034 2.51,0 0,0"
               style="fill:#00052a;fill-opacity:1;fill-rule:nonzero;stroke:none"
               id="path939" />
          </g>
          <g
             id="g941"
             transform="translate(253.0498,126.7178)">
            <path
               d="m 0,0 c -1.077,0 -2.071,0.702 -2.395,1.787 -0.394,1.323 0.359,2.716 1.682,3.109 l 76.909,22.911 c 0.579,0.193 0.635,0.718 0.611,1.012 -0.025,0.288 -0.162,0.784 -0.809,0.901 L 5.06,37.695 c -1.372,0.155 -2.36,1.392 -2.206,2.764 0.155,1.372 1.392,2.363 2.764,2.205 l 71.001,-7.982 c 0.033,-0.004 0.067,-0.008 0.1,-0.014 2.796,-0.429 4.833,-2.611 5.07,-5.43 0.236,-2.819 -1.408,-5.31 -4.093,-6.2 L 0.715,0.105 C 0.477,0.034 0.236,0 0,0"
               style="fill:#00b8e9;fill-opacity:1;fill-rule:nonzero;stroke:none"
               id="path943" />
          </g>
          <g
             id="g945"
             transform="translate(250.6767,131.5723)">
            <path
               d="m 0,0 c -9.607,0 -17.395,7.788 -17.395,17.396 0,9.607 7.788,17.395 17.395,17.395 9.607,0 17.396,-7.788 17.396,-17.395 C 17.396,7.788 9.607,0 0,0 m 0,39.757 c -12.35,0 -22.361,-10.012 -22.361,-22.361 0,-12.35 10.011,-22.362 22.361,-22.362 12.351,0 22.361,10.012 22.361,22.362 0,12.349 -10.01,22.361 -22.361,22.361"
               style="fill:#ff3000;fill-opacity:1;fill-rule:nonzero;stroke:none"
               id="path947" />
          </g>
          <g
             id="g949"
             transform="translate(250.6767,131.5723)">
            <path
               d="m 0,0 c -9.607,0 -17.395,7.788 -17.395,17.396 0,9.607 7.788,17.395 17.395,17.395 9.607,0 17.396,-7.788 17.396,-17.395 C 17.396,7.788 9.607,0 0,0 Z m 0,39.757 c -12.35,0 -22.361,-10.012 -22.361,-22.361 0,-12.35 10.011,-22.362 22.361,-22.362 12.351,0 22.361,10.012 22.361,22.362 0,12.349 -10.01,22.361 -22.361,22.361 z"
               style="fill:none;stroke:#ff3000;stroke-width:1;stroke-linecap:butt;stroke-linejoin:miter;stroke-miterlimit:10;stroke-dasharray:none;stroke-opacity:1"
               id="path951" />
          </g>
          <g
             id="g953"
             transform="translate(208.8989,372.4687)">
            <path
               d="m 0,0 c 0,0 7.25,-12.25 9.75,-12.25 2.5,0 21.5,8.75 21.5,8.75 l 7,-8.75 18.751,18.75 c 0,0 -8.5,-0.25 -14.751,9.5 0,0 15.751,16 11.001,29.5 C 48.501,59 17.5,73 0,46.75 c 0,0 -8,-8 -5.75,-18 C -3.5,18.75 -2.798,10 -6.149,4.75 -9.5,-0.5 0,0 0,0"
               style="fill:#ffb97b;fill-opacity:1;fill-rule:nonzero;stroke:none"
               id="path955" />
          </g>
          <g
             id="g957"
             transform="translate(240.1489,368.9687)">
            <path
               d="m 0,0 c 0,0 4.167,4.318 6.902,11.568 0,0 4.55,-7.624 -1.857,-17.874 z"
               style="fill:#ff4016;fill-opacity:1;fill-rule:nonzero;stroke:none"
               id="path959" />
          </g>
          <g
             id="g961"
             transform="translate(209.8784,384.812)">
            <path
               d="M 0,0 C 0.653,-0.838 1.861,-0.988 2.7,-0.335 3.538,0.317 3.688,1.526 3.035,2.364 2.382,3.202 1.173,3.352 0.335,2.699 -0.502,2.046 -0.653,0.838 0,0"
               style="fill:#001355;fill-opacity:1;fill-rule:nonzero;stroke:none"
               id="path963" />
          </g>
          <g
             id="g965"
             transform="translate(218.4004,375.8213)">
            <path
               d="M 0,0 C 0.09,-0.168 1.802,-5.736 -5.643,-8.146"
               style="fill:none;stroke:#ff4016;stroke-width:1;stroke-linecap:round;stroke-linejoin:round;stroke-miterlimit:10;stroke-dasharray:none;stroke-opacity:1"
               id="path967" />
          </g>
          <g
             id="g969"
             transform="translate(207.5679,390.3628)">
            <path
               d="M 0,0 C 0.066,0.132 3.264,4.785 7.662,0.643"
               style="fill:none;stroke:#001355;stroke-width:1;stroke-linecap:round;stroke-linejoin:round;stroke-miterlimit:10;stroke-dasharray:none;stroke-opacity:1"
               id="path971" />
          </g>
          <g
             id="g973"
             transform="translate(242.9223,400.9966)">
            <path
               d="m 0,0 c 0,0 -3.061,-1.08 -0.734,-6.423 0,0 -0.398,3.184 2.375,3.419"
               style="fill:none;stroke:#ff4016;stroke-width:1;stroke-linecap:round;stroke-linejoin:round;stroke-miterlimit:10;stroke-dasharray:none;stroke-opacity:1"
               id="path975" />
          </g>
          <g
             id="g977"
             transform="translate(217.3994,382.855)">
            <path
               d="m 0,0 c 0,0 -3.105,1.177 -3.489,0.173 -0.384,-1.004 6.123,-4.73 6.244,-4.525 0.121,0.206 1.9,6.883 0.108,6.983 C 1.072,2.731 0,0 0,0"
               style="fill:#ff593a;fill-opacity:1;fill-rule:nonzero;stroke:none"
               id="path979" />
          </g>
          <g
             id="g981"
             transform="translate(227.1484,317.8101)">
            <path
               d="m 0,0 c -8.428,-7.506 -30.617,-27.034 -34.25,-27.841 -4.5,-1 -14.25,0.5 -19.5,-3.5 -5.25,-4 -5,-12.25 -3.5,-13 1.5,-0.75 4.5,2.875 4.5,2.875 0,0 -2.25,-4.125 0,-5.625 2.25,-1.5 5.834,1.833 5.834,1.833 0,0 -2.584,-4.833 2.416,-6.333 2.488,-0.746 6.016,0.246 8.4,1.138 1.065,0.4 1.148,1.876 0.141,2.406 l -0.308,0.162 c -1.302,0.686 -1.747,2.348 -0.937,3.576 0.738,1.118 1.961,2.233 3.954,2.468 4.064,0.478 29.153,14.408 46.644,31.82 C 6.703,-8.349 2.194,-3.146 0,0"
               style="fill:#fc8843;fill-opacity:1;fill-rule:nonzero;stroke:none"
               id="path983" />
          </g>
          <g
             id="g985"
             transform="translate(221.1284,323.3721)">
            <path
               d="m 0,0 c -8.428,-7.506 -30.617,-27.034 -34.249,-27.841 -4.5,-1 -14.25,0.5 -19.5,-3.5 -5.25,-4 -5,-12.25 -3.5,-13 1.5,-0.75 4.5,2.875 4.5,2.875 0,0 -2.25,-4.125 0,-5.625 2.25,-1.5 5.833,1.833 5.833,1.833 0,0 -2.583,-4.833 2.417,-6.333 2.487,-0.746 6.015,0.246 8.399,1.138 1.066,0.4 1.148,1.876 0.141,2.406 l -0.308,0.162 c -1.302,0.686 -1.747,2.348 -0.937,3.576 0.738,1.118 1.961,2.233 3.955,2.468 4.064,0.478 29.152,14.408 46.643,31.82 C 6.703,-8.349 2.194,-3.146 0,0"
               style="fill:#ffb97b;fill-opacity:1;fill-rule:nonzero;stroke:none"
               id="path987" />
          </g>
          <g
             id="g989"
             transform="translate(272.1494,377.6353)">
            <path
               d="m 0,0 c 0,0 -12.863,6.333 -19.099,-3.333 -6.235,-9.667 -9.485,-32 -15.027,-39.667 -5.541,-7.667 -12.423,-14.333 -12.423,-14.333 0,0 0.524,-1.023 1.548,-2.492 2.194,-3.146 6.703,-8.349 13.394,-10.021 1.761,-0.441 3.671,-0.639 5.731,-0.487 0,0 21.689,23.81 25.876,38 C 6,-12 0,0 0,0"
               style="fill:#ff7800;fill-opacity:1;fill-rule:nonzero;stroke:none"
               id="path991" />
          </g>
          <g
             id="g993"
             transform="translate(187.9092,286.9019)">
            <path
               d="M 0,0 C 0,0 6.04,1.25 6.02,4.417"
               style="fill:none;stroke:#00052a;stroke-width:1;stroke-linecap:round;stroke-linejoin:round;stroke-miterlimit:10;stroke-dasharray:none;stroke-opacity:1"
               id="path995" />
          </g>
          <g
             id="g997"
             transform="translate(272.1494,377.6353)">
            <path
               d="m 0,0 c 0,0 -12.125,6.458 -19.099,-3.333 -2.565,-3.603 -5.902,-14.084 -5.902,-14.084 -0.8,-12.417 3.609,-27.615 3.06,-30.5 -0.81,-4.25 5.441,-11.25 15.691,-11.25 l 8.916,-18 c 0,0 21.392,3.184 36.818,16.664 0.77,0.672 1.53,1.362 2.266,2.086 0,0 -11.5,41.334 -41.75,58.417"
               style="fill:#ff9800;fill-opacity:1;fill-rule:nonzero;stroke:none"
               id="path999" />
          </g>
          <g
             id="g1001"
             transform="translate(260.6494,250.7187)">
            <path
               d="M 0,0 C 1.756,-3.033 5.551,-4.138 9.887,-9.87 9.185,-5.496 7.924,0.485 6.933,4.975 0.739,3.715 -1.646,2.841 0,0"
               style="fill:#005fae;fill-opacity:1;fill-rule:nonzero;stroke:none"
               id="path1003" />
          </g>
          <g
             id="g1005"
             transform="translate(170.4824,240.8486)">
            <path
               d="m 0,0 119.89,4.06 c 0.991,0.034 1.777,0.846 1.777,1.837 v 1.384 c 0,1.016 0.823,1.839 1.839,1.839 h 91.191 c 2.561,0 4.636,-2.076 4.636,-4.637 0,-2.5 -1.981,-4.549 -4.48,-4.633 l -99.409,-3.337 c -0.991,-0.034 -1.777,-0.846 -1.777,-1.838 0,-1.034 -0.854,-1.865 -1.888,-1.838 L 0,-4.213 Z"
               style="fill:#00052a;fill-opacity:1;fill-rule:nonzero;stroke:none"
               id="path1007" />
          </g>
          <g
             id="g1009"
             transform="translate(258.9082,255.831)">
            <path
               d="m 0,0 v 0 c 0.436,-3.86 3.918,-6.636 7.777,-6.2 l 50.827,5.734 c 3.86,0.435 6.636,3.917 6.201,7.777 l -0.147,1.296 c -0.443,3.929 -4.038,6.721 -7.955,6.178 L 6.022,7.754 C 2.244,7.23 -0.427,3.79 0,0"
               style="fill:#ff3000;fill-opacity:1;fill-rule:nonzero;stroke:none"
               id="path1011" />
          </g>
          <g
             id="g1013"
             transform="translate(137.479,148.9678)">
            <path
               d="m 0,0 c -0.635,0 -1.28,0.152 -1.879,0.472 -1.95,1.04 -2.686,3.463 -1.647,5.412 l 29.283,54.883 c 1.205,2.256 1.943,4.689 2.195,7.23 0.808,8.152 3.509,32.164 4.634,42.109 0.126,1.116 -0.841,1.99 -1.263,2.313 -0.086,0.067 -0.169,0.136 -0.25,0.209 -1.313,1.19 -12.923,11.75 -15.991,16.046 -1.765,2.472 -1.748,5.653 0.045,8.104 1.766,2.415 4.864,3.421 7.712,2.503 0.087,-0.028 0.172,-0.059 0.257,-0.093 L 59.32,124.715 c 2.052,-0.819 3.051,-3.147 2.231,-5.198 -0.82,-2.051 -3.149,-3.052 -5.198,-2.23 L 24.51,130.008 c 3.335,-3.473 8.441,-8.282 11.826,-11.353 3.031,-2.396 4.598,-5.915 4.199,-9.447 -1.122,-9.93 -3.819,-33.896 -4.622,-42 C 35.558,63.62 34.515,60.186 32.815,57.001 L 3.533,2.118 C 2.813,0.769 1.43,0 0,0"
               style="fill:#00052a;fill-opacity:1;fill-rule:nonzero;stroke:none"
               id="path1015" />
          </g>
          <g
             id="g1017"
             transform="translate(249.4687,145.4043)">
            <path
               d="M 0,0 C -2.271,0 -4.426,0.959 -5.982,2.716 L -81.01,87.482 c -1.465,1.655 -1.31,4.183 0.343,5.647 1.655,1.465 4.182,1.31 5.647,-0.344 L 0.008,8.019 24.285,81.687 c 0.969,2.949 3.482,5.04 6.558,5.458 3.076,0.418 6.054,-0.929 7.774,-3.513 l 43.416,-65.211 36.695,78.118 c 0.937,2 3.318,2.859 5.319,1.923 2,-0.938 2.861,-3.319 1.924,-5.319 L 89.349,15.03 C 88.118,12.406 85.558,10.642 82.667,10.425 79.781,10.21 76.98,11.573 75.374,13.987 L 31.958,79.199 7.679,5.535 C 6.769,2.766 4.521,0.76 1.665,0.171 1.107,0.056 0.551,0 0,0"
               style="fill:#00052a;fill-opacity:1;fill-rule:nonzero;stroke:none"
               id="path1019" />
          </g>
          <g
             id="g1021"
             transform="translate(147.2134,150.4687)">
            <path
               d="m 0,0 c 0,-5.006 -4.058,-9.064 -9.064,-9.064 -5.006,0 -9.065,4.058 -9.065,9.064 0,5.006 4.059,9.064 9.065,9.064 C -4.058,9.064 0,5.006 0,0"
               style="fill:#ff3000;fill-opacity:1;fill-rule:nonzero;stroke:none"
               id="path1023" />
          </g>
          <g
             id="g1025"
             transform="translate(342.1729,155.5215)">
            <path
               d="m 0,0 c 0,-5.419 -4.393,-9.813 -9.813,-9.813 -5.418,0 -9.812,4.394 -9.812,9.813 0,5.42 4.394,9.813 9.812,9.813 C -4.393,9.813 0,5.42 0,0"
               style="fill:#ff3000;fill-opacity:1;fill-rule:nonzero;stroke:none"
               id="path1027" />
          </g>
          <g
             id="g1029"
             transform="translate(332.3604,102.7441)">
            <path
               d="m 0,0 c -29.148,0 -52.777,23.629 -52.777,52.777 0,29.149 23.629,52.779 52.777,52.779 29.148,0 52.778,-23.63 52.778,-52.779 C 52.778,23.629 29.148,0 0,0 m 0,110.917 c -32.109,0 -58.139,-26.03 -58.139,-58.14 0,-32.109 26.03,-58.138 58.139,-58.138 32.109,0 58.139,26.029 58.139,58.138 0,32.11 -26.03,58.14 -58.139,58.14"
               style="fill:#00b8e9;fill-opacity:1;fill-rule:nonzero;stroke:none"
               id="path1031" />
          </g>
          <g
             id="g1033"
             transform="translate(367.3359,109.084)">
            <path
               d="m 0,0 c -25.647,-19.316 -62.097,-14.185 -81.413,11.463 -19.316,25.646 -14.185,62.097 11.462,81.413 25.647,19.316 62.097,14.185 81.414,-11.463 C 30.778,55.767 25.646,19.316 0,0 m -74.521,98.944 c -28.999,-21.84 -34.801,-63.053 -12.96,-92.051 21.839,-28.999 63.053,-34.802 92.051,-12.961 28.998,21.84 34.801,63.053 12.96,92.051 -21.84,28.998 -63.052,34.801 -92.051,12.961"
               style="fill:#171743;fill-opacity:1;fill-rule:nonzero;stroke:none"
               id="path1035" />
          </g>
          <g
             id="g1037"
             transform="translate(391.5957,196.6338)">
            <path
               d="m 0,0 c -1.062,0 -2.11,0.48 -2.799,1.395 -11.353,15.074 -27.898,24.825 -46.586,27.457 -18.687,2.625 -37.281,-2.174 -52.357,-13.528 -1.543,-1.161 -3.738,-0.854 -4.902,0.691 -1.162,1.544 -0.853,3.738 0.691,4.901 16.568,12.479 37.007,17.76 57.544,14.866 C -27.869,32.891 -9.686,22.174 2.793,5.605 3.956,4.062 3.647,1.867 2.103,0.704 1.473,0.229 0.733,0 0,0"
               style="fill:#00b8e9;fill-opacity:1;fill-rule:nonzero;stroke:none"
               id="path1039" />
          </g>
          <g
             id="g1041"
             transform="translate(286.6494,169.2265)">
            <path
               d="m 0,0 h -14.463 c -4.66,0 -8.982,-2.428 -11.408,-6.406 l -23.591,-38.697 c -2.426,-3.978 -6.748,-6.405 -11.408,-6.405 h -9.881"
               style="fill:none;stroke:#00052a;stroke-width:5;stroke-linecap:round;stroke-linejoin:round;stroke-miterlimit:10;stroke-dasharray:none;stroke-opacity:1"
               id="path1043" />
          </g>
          <g
             id="g1045"
             transform="translate(276.3154,199.1357)">
            <path
               d="m 0,0 c 4,-3.667 -0.5,-7 -3.5,-11.167 -3,-4.167 -4.807,-8.174 -7.5,-8.5 -5.5,-0.667 -11,-3.167 -9.666,-7.167 1.333,-4 20.833,-1.666 27.833,0 7,1.667 3,11.333 7,15 4,3.667 11.833,8.667 2,16.167 C 10.72,8.487 7.171,13.25 5.084,16.678 L -7.743,8.273 C -5.283,5.452 -2.143,1.964 0,0"
               style="fill:#ffb97b;fill-opacity:1;fill-rule:nonzero;stroke:none"
               id="path1047" />
          </g>
          <g
             id="g1049"
             transform="translate(311.6338,317.1323)">
            <path
               d="m 0,0 c -15.427,-13.48 -36.818,-16.664 -36.818,-16.664 -15.304,-4.232 -48.167,-32.25 -54.917,-38.462 -6.75,-6.213 0.75,-15.538 5.702,-20.288 4.332,-4.156 34.455,-29.897 41.633,-35.87 0.948,-0.788 2.307,-0.843 3.316,-0.134 l 11.001,7.736 c 1.152,0.809 1.484,2.353 0.798,3.583 -1.166,2.093 -3.358,5.971 -4.199,8.435 -7,20.5 -14.75,20.5 -17.5,25.25 -2.75,4.75 5.75,4 24.5,8.75 18.75,4.75 35.5,10 39.25,27 C 15.658,-17.549 5.018,-5.038 0,0"
               style="fill:#0066d6;fill-opacity:1;fill-rule:nonzero;stroke:none"
               id="path1051" />
          </g>
          <g
             id="g1053"
             transform="translate(305.8994,298.7187)">
            <path
               d="m 0,0 c 0,0 2.75,-6.25 -4.75,-9.5 -7.5,-3.25 -52.945,-21.75 -54.098,-30"
               style="fill:none;stroke:#00052a;stroke-width:1;stroke-linecap:round;stroke-linejoin:round;stroke-miterlimit:10;stroke-dasharray:none;stroke-opacity:1"
               id="path1055" />
          </g>
          <g
             id="g1057"
             transform="translate(313.8994,308.7187)">
            <path
               d="m 0,0 c 0,0 1.25,-18.5 5.25,-19 4,-0.5 5.74,0 5.74,0"
               style="fill:none;stroke:#00052a;stroke-width:1;stroke-linecap:round;stroke-linejoin:round;stroke-miterlimit:10;stroke-dasharray:none;stroke-opacity:1"
               id="path1059" />
          </g>
          <g
             id="g1061"
             transform="translate(243.8989,262.0059)">
            <path
               d="m 0,0 c 0,0 -15.25,-3.837 -16.5,-6.312 -1.25,-2.475 14,4.275 20.75,1.275"
               style="fill:none;stroke:#00052a;stroke-width:1;stroke-linecap:round;stroke-linejoin:round;stroke-miterlimit:10;stroke-dasharray:none;stroke-opacity:1"
               id="path1063" />
          </g>
          <g
             id="g1065"
             transform="translate(286.0205,363.4878)">
            <path
               d="m 0,0 33.386,-76.316 c 3.178,-7.268 11.223,-11.087 18.861,-8.945 14.479,4.061 35.946,10.661 39.215,14.912 5,6.504 -0.333,16.496 -0.333,16.496 l 2,7.498 c 2,7.497 -9.334,29.502 -12,31.169 -2.667,1.667 -9,2.333 -9,2.333 0,0 -12,24.667 -23,29.244 -11,4.577 -42.334,-5.244 -42.334,-5.244 0,0 -1.406,4.471 -14.333,8.834 -13.333,4.5 -21.782,-5.639 -21.782,-5.639 0,0 9.364,5.371 19.077,-2.419 l 2.306,-1.775 C -4.479,7.488 -1.749,3.997 0,0"
               style="fill:#ff3000;fill-opacity:1;fill-rule:nonzero;stroke:none"
               id="path1067" />
          </g>
          <g
             id="g1069"
             transform="translate(263.2559,346.7114)">
            <path
               d="m 0,0 c -4.187,-13.616 -25.875,-36.464 -25.875,-36.464 -13.542,-0.959 -20.673,12.475 -20.673,12.475 0,0 6.881,6.397 12.423,13.754 5.541,7.356 8.791,28.787 15.027,38.063 C -12.863,37.104 0,31.026 0,31.026 0,31.026 6,19.511 0,0"
               style="fill:#ff9800;fill-opacity:1;fill-rule:nonzero;stroke:none"
               id="path1071" />
          </g>
          <g
             id="g1073"
             transform="translate(263.2559,346.7114)">
            <path
               d="m 0,0 c -1.841,-5.987 -7.066,-13.759 -12.344,-20.589 1.352,-2.627 4.427,-5.328 8.789,-6.708 2.58,6.42 6.967,20.955 5.313,34.432 C 1.345,4.894 0.773,2.515 0,0"
               style="fill:#e17b00;fill-opacity:1;fill-rule:nonzero;stroke:none"
               id="path1075" />
          </g>
          <g
             id="g1077"
             transform="translate(269.5244,406.0937)">
            <path
               d="M 0,0 C 7.214,-1.089 10.25,3.125 10.25,3.125 6.048,2.093 1.988,2.54 -0.646,3.079 2.184,4.704 5.694,8.315 3.458,15.875 2.852,17.926 2.018,19.646 1.039,21.085 5.341,24.803 13.5,21.5 13.5,21.5 c -8.015,7.269 -13.595,4.95 -15.918,3.196 -0.994,0.727 -2.035,1.29 -3.082,1.701 5.738,7.671 1,12.853 1,12.853 0.375,-3.75 -2.25,-6.875 -2.25,-6.875 1.375,3 0,5.25 0,5.25 -1.125,-6 -8.125,-11.417 -8.125,-11.417 0,0 -9.667,6.834 -23.667,3.834 -14,-3 -23,-15 -23,-15 0,0 1.75,11.333 16.333,17 14.362,5.58 18.833,7.5 19.167,9 0,0 -9.516,-3.588 -20.667,-6.5 -9.943,-2.598 -21,-9.834 -16.833,-22.167 0,0 -8.334,-1.667 -8.5,-12.667 -0.058,-3.793 1.51,-6.615 3.589,-8.685 l 0.66,3.352 c 0,0 3.417,-5.167 5.584,-4.667 0,0 -2,7.334 -1.5,8.667 0,0 2.5,-8.735 12.5,-8.701 0,0 -3.833,4.201 -4,5.868 0,0 5.167,-5.369 15.833,-4.518 l -0.666,3.351 9.5,-8.167 c 0,0 -3.167,9.5 0.666,12.334 3.834,2.833 8.834,-1.369 8.334,-7.518 -0.5,-6.149 -4,-10.482 -4,-10.482 h 5.5 c 0,0 -3,-1 -4.667,-1.834 0,0 2.804,-3 8.235,0 5.432,3 4.432,7.167 4.432,7.167 0,0 5.958,4.304 7.863,11.026 C 8.473,-10.151 15.625,1 15.625,1 7.25,-3.875 0,0 0,0"
               style="fill:#00052a;fill-opacity:1;fill-rule:nonzero;stroke:none"
               id="path1079" />
          </g>
          <g
             id="g1081"
             transform="translate(238.0239,413.8437)">
            <path
               d="m 0,0 c 0,0 -19.261,5.46 -20.193,16.417 -1.77,-1.222 -3.328,-2.485 -4.654,-3.669 C -24.843,12.729 -21.987,-3.124 0,0"
               style="fill:#00144c;fill-opacity:1;fill-rule:nonzero;stroke:none"
               id="path1083" />
          </g>
          <g
             id="g1085"
             transform="translate(233.9668,419.0937)">
            <path
               d="M 0,0 C 0,0 5.807,-4.875 12.307,-1.25 12.307,-1.25 2.692,-1 0,0"
               style="fill:#00144c;fill-opacity:1;fill-rule:nonzero;stroke:none"
               id="path1087" />
          </g>
        </g>
      </g>
      <text
         y="57.063965"
         x="-55.038315"
         transform="matrix(-0.93290599,-0.36012001,-0.36012001,0.93290599,0,0)"
         style="font-style:italic;font-variant:normal;font-weight:900;font-stretch:normal;font-size:0.816153px;font-family:'FSP DEMO -Gln Grtsq Blck tlc';-inkscape-font-specification:FONTSPRINGDEMO-GalanoGrotesqueBlackItalicRegular;writing-mode:lr-tb;fill:#ffffff;fill-opacity:1;fill-rule:nonzero;stroke:none;stroke-width:0.100573"
         id="text1093"><tspan
           style="stroke-width:0.100573"
           x="-55.038315 -54.542091 -53.966702 -53.425594 -52.863258 -52.367035 -51.838985"
           y="57.063965"
           sodipodi:role="line"
           id="tspan1089">EXPRESS</tspan><tspan
           style="stroke-width:0.100573"
           x="-55.038315 -54.502102 -54.005878 -53.484356 -52.879585 -52.641266 -52.007111"
           y="58.04335"
           sodipodi:role="line"
           id="tspan1091">SERVICE</tspan></text>
      <g
         transform="matrix(-0.10057278,0,0,-0.10057278,62.13276,107.15519)"
         id="g1095">
        <g
           id="g1097"
           clip-path="url(#clipPath1101-3)">
          <g
             id="g1103"
             transform="translate(319.458,368.7393)">
            <path
               d="m 0,0 c 0.146,0.047 0.293,0.086 0.439,0.117 2.848,0.668 5.776,-0.95 6.683,-3.783 0.955,-2.979 -0.686,-6.167 -3.665,-7.122 -2.979,-0.954 -6.168,0.687 -7.123,3.666 -0.907,2.833 0.535,5.851 3.24,6.962 0.138,0.06 0.28,0.113 0.426,0.16 -4.207,-1.348 -6.525,-5.852 -5.178,-10.06 1.349,-4.207 5.853,-6.525 10.06,-5.177 4.208,1.348 6.525,5.852 5.178,10.059 C 8.712,-0.97 4.208,1.348 0,0"
               style="fill:#ffffff;fill-opacity:1;fill-rule:nonzero;stroke:none"
               id="path1105" />
          </g>
          <g
             id="g1107"
             transform="translate(316.584,363.1543)">
            <path
               d="M 0,0 C 0.748,-2.336 3.249,-3.623 5.585,-2.875 7.921,-2.126 9.208,0.375 8.459,2.71 7.758,4.9 5.516,6.168 3.313,5.702 3.167,5.667 3.021,5.632 2.874,5.585 2.729,5.538 2.588,5.482 2.448,5.425 0.386,4.525 -0.702,2.19 0,0"
               style="fill:#ffffff;fill-opacity:1;fill-rule:nonzero;stroke:none"
               id="path1109" />
          </g>
          <g
             id="g1111"
             transform="translate(275.6816,199.6357)">
            <path
               d="m 0,0 c -0.404,0.42 -1.125,0.236 -1.276,-0.326 -0.101,-0.372 -0.173,-0.89 -0.184,-1.61 -0.039,-2.667 1.507,-4.833 -1.184,-7.333 -2.689,-2.5 -5.481,-7.846 -5.481,-7.846 0,0 -12.374,-0.786 -13.374,-9.321 0,0 0.02,-4.222 16.868,-2.767 10.382,0.896 14.924,1.164 16.008,4.581 0.939,2.965 2.79,9.452 4.624,11.069 1.833,1.617 12.979,9.557 4,16.117 -8.98,6.561 -7.667,6.1 -7.667,6.1 C 11.607,7.956 11.348,6.885 11.711,5.937 12.284,4.44 12.565,2.009 9.74,-0.001 6.867,-2.045 2.828,-2.938 0,0"
               style="fill:#000318;fill-opacity:1;fill-rule:nonzero;stroke:none"
               id="path1113" />
          </g>
          <g
             id="g1115"
             transform="translate(254.1826,173.2002)">
            <path
               d="m 0,0 c 0,0 -0.05,-0.863 0,-3.106 0.049,-2.245 16.25,-4.592 29.166,-0.868 0,0 7.25,1.557 7.917,8.974 C 37.75,12.417 47,16.34 47,19.753 c 0,3.414 -2.834,6.539 -2.834,6.539 0,0 0.535,-2.952 -2.232,-6.539 C 39.166,16.167 33.35,10.75 32.467,4.417 31.583,-1.917 13.25,-1.825 10.583,-1.871 7.916,-1.917 0,0 0,0"
               style="fill:#ff9800;fill-opacity:1;fill-rule:nonzero;stroke:none"
               id="path1117" />
          </g>
          <g
             id="g1119"
             transform="translate(292.7061,194.6279)">
            <path
               d="m 0,0 c 0,-1.86 -1.508,-3.368 -3.368,-3.368 -1.86,0 -3.367,1.508 -3.367,3.368 0,1.859 1.507,3.367 3.367,3.367 C -1.508,3.367 0,1.859 0,0"
               style="fill:#ff9800;fill-opacity:1;fill-rule:nonzero;stroke:none"
               id="path1121" />
          </g>
          <g
             id="g1123"
             transform="translate(277.376,185.7754)">
            <path
               d="m 0,0 -5.438,2.712 c -0.751,0.375 -1.059,1.296 -0.685,2.047 0.375,0.751 1.296,1.059 2.047,0.684 L 1.362,2.731 C 2.113,2.357 2.422,1.437 2.047,0.685 1.673,-0.066 0.752,-0.374 0,0"
               style="fill:#ff9800;fill-opacity:1;fill-rule:nonzero;stroke:none"
               id="path1125" />
          </g>
          <g
             id="g1127"
             transform="translate(274.1357,181.7754)">
            <path
               d="m 0,0 -5.438,2.712 c -0.751,0.375 -1.059,1.296 -0.685,2.047 0.375,0.751 1.296,1.059 2.047,0.684 L 1.362,2.731 C 2.113,2.357 2.422,1.437 2.047,0.685 1.673,-0.066 0.752,-0.374 0,0"
               style="fill:#ff9800;fill-opacity:1;fill-rule:nonzero;stroke:none"
               id="path1129" />
          </g>
          <g
             id="g1131"
             transform="translate(300.0479,196.6338)">
            <path
               d="m 0,0 c 0,0 0.036,-3.871 -2.811,-6.61 -2.846,-2.741 -6.264,-5.626 -7.899,-12.116 -1.634,-6.488 -12.864,-10.783 -35.155,-6.579"
               style="fill:none;stroke:#ffffff;stroke-width:1;stroke-linecap:round;stroke-linejoin:round;stroke-miterlimit:10;stroke-dasharray:none;stroke-opacity:1"
               id="path1133" />
          </g>
          <g
             id="g1135"
             transform="translate(120.8149,154.9668)">
            <path
               d="m 0,0 -2.299,-2.167 -0.133,2.521 -2.255,-2.476 -0.619,3.99 -1.945,-3.371 c -0.531,2.122 -0.531,6.058 -0.531,6.058 l -2.654,-5.837 c -1.768,3.36 -1.06,8.545 -1.06,8.545 -1.415,-1.713 -3.538,-8.545 -3.538,-8.545 -1.591,4.422 -0.707,10.375 -0.707,10.375 -2.653,-2.714 -5.837,-8.96 -5.837,-8.96 C -21.754,27.9 0.708,32.805 0.708,32.805 -4.774,26.565 -6.19,18.35 -6.19,18.35 c 0,0 1.944,3.905 4.686,5.091 0,0 -2.034,-8.363 -2.299,-11.546 0,0 1.99,4.509 3.715,5.172 0,0 -1.239,-5.837 -1.416,-8.887 l 2.212,2.616 V 5.925 L 2.432,7.649 V 3.803 l 1.591,1.459 0.398,-5.659 -4.642,-2.085 z"
               style="fill:#ffffff;fill-opacity:1;fill-rule:nonzero;stroke:none"
               id="path1137" />
          </g>
          <g
             id="g1139"
             transform="translate(375.3633,136.6953)">
            <path
               d="m 0,0 c 0,0 -3.008,-20.34 -30.951,-27.591 l 3.714,5.659 -7.251,-2.652 5.305,7.074 -8.489,-1.945 5.659,7.484 -7.428,-1.825 4.245,5.925 h -4.245 l 2.653,3.626 -3.714,-1.238 3.007,5.483 h -3.007 c 0,0 3.184,6.94 3.891,7.361 0.708,0.421 6.72,-1.879 6.72,-1.879 0,0 -3.005,-2.83 -2.298,-2.652 0.707,0.177 4.952,1.922 4.952,1.922 l -2.122,-4.929 7.163,2.741 -4.158,-6.279 9.021,4.511 -5.129,-7.517 11.319,7.163 -7.582,-10.537 c 0,0 11.296,8.414 12.888,11.244 0,0 0.354,-6.367 -9.727,-14.768 0,0 7.074,3.524 15.564,13.619"
               style="fill:#ffffff;fill-opacity:1;fill-rule:nonzero;stroke:none"
               id="path1141" />
          </g>
          <g
             id="g1143"
             transform="translate(341.916,172.3828)" />
          <g
             id="g1147"
             transform="translate(157.2305,170.8584)" />
          <g
             id="g1151"
             transform="translate(156.6431,160.5762)" />
          <g
             id="g1155"
             transform="translate(358.6191,163.7754)" />
          <g
             id="g1159"
             transform="translate(275.457,278.4966)" />
          <g
             id="g1163"
             transform="translate(259.8535,269.6772)" />
          <g
             id="g1167"
             transform="translate(284.21,388.7842)">
            <path
               d="M 0,0 C -0.266,-0.639 39.548,7.496 79.097,0"
               style="fill:#ffffff;fill-opacity:1;fill-rule:nonzero;stroke:none"
               id="path1169" />
          </g>
          <g
             id="g1171"
             transform="translate(302.3662,395.3706)">
            <path
               d="M 0,0 C -0.174,-0.418 25.897,4.908 51.796,0"
               style="fill:#ffffff;fill-opacity:1;fill-rule:nonzero;stroke:none"
               id="path1173" />
          </g>
        </g>
      </g>
    </g>
    <path
       id="path44"
       style="fill:#ffffff;fill-opacity:1;fill-rule:nonzero;stroke:none;stroke-width:0.158371"
       d="m 86.447275,12.34823 c 0.007,-0.10596 0.0104,-0.21254 0.0104,-0.32007 0,-2.93857 -2.38222,-5.32064 -5.32064,-5.32064 -0.55778,0 -1.09514,0.0862 -1.60018,0.24532 1.2e-4,-0.0187 8.4e-4,-0.037 8.4e-4,-0.0556 0,-3.63683 -2.94808,-6.58491 -6.58476,-6.58491 -2.89835,0 -5.35738,1.87338 -6.23729,4.47462 -0.76509,-0.4588 -1.66021,-0.72312 -2.61723,-0.72312 -2.81537,0 -5.09766,2.28228 -5.09766,5.09764 0,0.3234 0.0315,0.63951 0.0892,0.94627 -2.46551,0.3576 -4.35948,2.47914 -4.35948,5.04365 0,2.81536 2.28229,5.09765 5.09749,5.09765 h 25.32418 c 2.24032,0 4.05652,-1.8162 4.05652,-4.05652 0,-1.78754 -1.15659,-3.30378 -2.76184,-3.8443" />
    <path
       id="path36-6"
       style="fill:#ffffff;fill-opacity:1;fill-rule:nonzero;stroke:none;stroke-width:0.168209"
       d="m 22.475989,19.353018 h -0.43567 c 0.113549,-0.05514 0.225911,-0.112353 0.336422,-0.172574 0.03195,0.05823 0.06574,0.115382 0.09924,0.172574 m 15.505564,-4.575801 c -0.7048,0 -1.369568,0.164007 -1.965691,0.448452 -0.233478,-3.807929 -3.394309,-6.824611 -7.260941,-6.824611 -0.931553,0 -1.82104,0.176963 -2.639545,0.49589 -1.20808,-3.0575534 -4.187744,-5.2217312 -7.674903,-5.2217312 -4.456538,0 -8.08566,3.5335793 -8.243786,7.9516062 -0.0025,0 -0.0058,-1.25e-4 -0.0075,-1.25e-4 -3.397162,-9e-6 -6.151257,2.753919 -6.151257,6.151082 0,3.397162 2.754095,6.15109 6.151257,6.15109 h 27.7923 c 2.527182,0 4.57581,-2.048628 4.57581,-4.575801 0,-2.527182 -2.048628,-4.57581 -4.57581,-4.57581" />
    <path
       id="path76"
       style="fill:#ffffff;fill-opacity:1;fill-rule:nonzero;stroke:none;stroke-width:0.0960326"
       d="m 19.687356,47.501965 c -0.570826,0 -1.10851,0.14079 -1.581378,0.388358 -0.542683,-1.003737 -1.604422,-1.685765 -2.825677,-1.685765 -0.462396,0 -0.901561,0.09853 -1.298747,0.274559 -0.610388,-1.87437 -2.370965,-3.229399 -4.449022,-3.229399 -2.301917,0 -4.214225,1.662811 -4.604789,3.85256 C 4.547927,46.971378 4.140755,46.899269 3.716477,46.899269 1.663959,46.899269 0,48.563228 0,50.615746 c 0,2.052608 1.663959,3.716477 3.716477,3.716477 h 15.970879 c 1.886189,0 3.415129,-1.52894 3.415129,-3.415129 0,-1.886092 -1.52894,-3.415129 -3.415129,-3.415129" />
    <path
       id="path68"
       style="fill:#ffffff;fill-opacity:1;fill-rule:nonzero;stroke:none;stroke-width:0.172099"
       d="m 135.88871,5.428 c -0.26968,0 -0.53489,0.0194 -0.79527,0.0537 C 134.15446,2.31266 131.22241,0 127.74877,0 c -3.16095,0 -5.87391,1.9146 -7.04454,4.64719 -0.69097,-0.27484 -1.44373,-0.42766 -2.23264,-0.42766 -2.43089,0 -4.52552,1.43581 -5.48531,3.50479 -0.6359,-0.29912 -1.34582,-0.46725 -2.09529,-0.46725 -2.10152,0 -3.89461,1.31587 -4.60349,3.16817 -0.47137,-0.21633 -0.99387,-0.34007 -1.54631,-0.34007 -2.05263,0 -3.71648,1.66385 -3.71648,3.71648 0,2.05263 1.66385,3.71648 3.71648,3.71648 h 31.14752 c 3.33855,0 6.04515,-2.70643 6.04515,-6.04498 0,-3.33872 -2.7066,-6.04515 -6.04515,-6.04515" />
    <path
       id="path52-9"
       style="fill:#ffffff;fill-opacity:1;fill-rule:nonzero;stroke:none;stroke-width:0.158915"
       d="m 140.83563,36.00677 c 0.004,-0.1114 0.009,-0.22296 0.009,-0.33547 v -0.0892 l -0.0692,0.006 c -0.61946,-3.58181 -3.73977,-6.30674 -7.49844,-6.30674 -0.52061,0 -1.02898,0.0526 -1.52019,0.15208 -1.64081,-2.4767 -4.45139,-4.11098 -7.64465,-4.11098 -4.81244,0 -8.75562,3.70988 -9.13256,8.42523 -0.83384,-0.47056 -1.79592,-0.74038 -2.82155,-0.74038 -3.1753,0 -5.74942,2.57411 -5.74942,5.7494 v 0.0574 c 0,3.14367 2.54837,5.69204 5.69188,5.69204 h 19.90897 c 0.21867,0 0.43479,-0.0108 0.64949,-0.0264 0.20405,0.0164 0.40984,0.0264 0.61802,0.0264 4.20412,0 7.61238,-3.40827 7.61238,-7.61238 0,-0.30035 -0.0194,-0.59609 -0.0533,-0.88738" />
  </g>
</svg>
