<?xml version="1.0" encoding="UTF-8" standalone="no"?>
<svg
   xmlns:dc="http://purl.org/dc/elements/1.1/"
   xmlns:cc="http://creativecommons.org/ns#"
   xmlns:rdf="http://www.w3.org/1999/02/22-rdf-syntax-ns#"
   xmlns:svg="http://www.w3.org/2000/svg"
   xmlns="http://www.w3.org/2000/svg"
   xmlns:sodipodi="http://sodipodi.sourceforge.net/DTD/sodipodi-0.dtd"
   xmlns:inkscape="http://www.inkscape.org/namespaces/inkscape"
   width="182.04501mm"
   height="49.661827mm"
   viewBox="0 0 182.04501 49.661827"
   version="1.1"
   id="svg8"
   inkscape:version="1.0 (4035a4fb49, 2020-05-01)"
   sodipodi:docname="logo.svg">
  <defs
     id="defs2" />
  <sodipodi:namedview
     fit-margin-bottom="0"
     fit-margin-right="0"
     fit-margin-left="0"
     fit-margin-top="0"
     id="base"
     pagecolor="#ffffff"
     bordercolor="#666666"
     borderopacity="1.0"
     inkscape:pageopacity="0.0"
     inkscape:pageshadow="2"
     inkscape:zoom="0.7"
     inkscape:cx="399.69654"
     inkscape:cy="-56.917724"
     inkscape:document-units="mm"
     inkscape:current-layer="layer1"
     inkscape:document-rotation="0"
     showgrid="false"
     inkscape:window-width="1366"
     inkscape:window-height="705"
     inkscape:window-x="-8"
     inkscape:window-y="-8"
     inkscape:window-maximized="1" />
  <metadata
     id="metadata5">
    <rdf:RDF>
      <cc:Work
         rdf:about="">
        <dc:format>image/svg+xml</dc:format>
        <dc:type
           rdf:resource="http://purl.org/dc/dcmitype/StillImage" />
        <dc:title></dc:title>
      </cc:Work>
    </rdf:RDF>
  </metadata>
  <g
     transform="translate(-14.783969,-67.201074)"
     inkscape:label="Layer 1"
     inkscape:groupmode="layer"
     id="layer1">
    <g
       id="text835"
       style="font-style:normal;font-weight:normal;font-size:10.5833px;line-height:1.25;font-family:sans-serif;fill:#000000;fill-opacity:1;stroke:none;stroke-width:0.264583" />
    <g
       aria-label="DEN"
       id="text843"
       style="font-style:normal;font-weight:normal;font-size:29.0373px;line-height:1.25;font-family:sans-serif;fill:#000000;fill-opacity:1;stroke:none;stroke-width:0.725934">
      <path
         d="m 33.272563,77.511978 q 0,3.969944 -1.403659,6.890688 -1.403659,2.906565 -4.08337,4.452008 Q 25.12,90.400116 21.461981,90.400116 H 14.783969 L 19.165085,69.67134 h 5.898202 q 3.91323,0 6.054163,2.055864 2.155113,2.041685 2.155113,5.784774 z m -10.974058,8.294346 q 1.55962,0 2.77896,-0.992485 1.233518,-0.992486 1.91408,-2.821496 0.680562,-1.843188 0.680562,-4.196797 0,-1.772296 -0.765632,-2.679712 -0.765632,-0.921594 -2.140934,-0.921594 h -1.006664 l -2.43868,11.612084 z"
         style="font-style:italic;font-variant:normal;font-weight:800;font-stretch:normal;font-family:'Open Sans';-inkscape-font-specification:'Open Sans Ultra-Bold Italic';fill:#41414d;fill-opacity:1;stroke-width:0.725934"
         id="path1036" />
      <path
         d="M 46.94051,90.400116 H 34.633685 L 39.014801,69.67134 h 12.306825 l -0.921594,4.494543 H 43.63695 l -0.666384,3.261025 h 6.295196 l -1.020842,4.494543 h -6.295196 l -0.808167,3.91323 h 6.763082 z"
         style="font-style:italic;font-variant:normal;font-weight:800;font-stretch:normal;font-family:'Open Sans';-inkscape-font-specification:'Open Sans Ultra-Bold Italic';fill:#41414d;fill-opacity:1;stroke-width:0.725934"
         id="path1038" />
      <path
         d="M 69.200549,90.400116 H 62.749391 L 58.651842,75.824752 h -0.113427 q -0.411172,4.125906 -0.808167,5.926559 l -1.829009,8.648805 H 50.967166 L 55.348282,69.67134 h 6.451158 l 4.055014,13.937337 h 0.127605 q 0.411173,-3.346095 0.808167,-5.260175 l 1.857367,-8.677162 h 4.934072 z"
         style="font-style:italic;font-variant:normal;font-weight:800;font-stretch:normal;font-family:'Open Sans';-inkscape-font-specification:'Open Sans Ultra-Bold Italic';fill:#41414d;fill-opacity:1;stroke-width:0.725934"
         id="path1040" />
    </g>
    <g
       aria-label="CASA"
       transform="scale(0.94125594,1.0624103)"
       id="text851"
       style="font-style:normal;font-variant:normal;font-weight:normal;font-stretch:normal;font-size:61.132px;line-height:1.25;font-family:Courgette;-inkscape-font-specification:Courgette;fill:#f03500;fill-opacity:1;stroke:none;stroke-width:1.52831">
      <path
         d="m 73.030227,97.162566 0.02985,-0.865639 q 0.328345,-8.925033 4.507291,-16.865029 3.850599,-7.253455 9.701123,-11.730897 5.790824,-4.417742 11.283152,-4.417742 4.178947,0 6.596767,2.895412 2.05962,2.507368 2.05962,6.14902 0,4.358043 -3.19391,8.596687 -1.85067,2.447668 -3.94015,3.522254 -0.985034,0.537293 -1.850673,0.537293 -0.835789,0 -1.552179,-0.358195 -0.716391,-0.358195 -1.253684,-0.895488 -1.104436,-1.164135 -1.104436,-2.089473 0,-0.925338 0.477594,-1.283533 4.895336,-3.522254 6.656468,-7.253455 0.68654,-1.432781 0.68654,-2.805863 0,-2.895413 -2.746168,-2.895413 -4.298344,0 -8.865334,4.686389 -4.268494,4.328193 -7.163906,10.865258 -3.014811,6.716162 -3.193908,12.327889 l -0.02985,1.134285 q 0,6.716164 2.835713,8.805634 1.014887,0.74624 2.417818,0.74624 1.432781,0 2.686465,-0.35819 1.253684,-0.3582 2.507367,-0.98504 2.029774,-1.04474 5.193832,-3.6118 0.955188,-0.74624 1.58203,0.20894 0.537293,0.77609 0.537293,1.79098 0,1.70143 -0.477594,2.32827 -0.447744,0.59699 -1.58203,1.43278 -1.104435,0.83579 -2.716314,1.55218 -3.761051,1.67158 -7.372853,1.67158 -3.611803,0 -5.820674,-0.86564 -2.208871,-0.89549 -3.731201,-2.53722 -3.164059,-3.46255 -3.164059,-9.432474 z"
         style="font-style:normal;font-variant:normal;font-weight:normal;font-stretch:normal;font-family:Courgette;-inkscape-font-specification:Courgette;fill:#f03500;fill-opacity:1;stroke-width:1.52831"
         id="path1027" />
      <path
         d="m 124.96855,102.92354 q 0,-4.029697 2.29842,-12.357738 -7.19376,0.179098 -11.01451,0.417895 -1.16414,2.119322 -2.11932,4.029697 l -1.85068,3.671502 q -3.6715,7.223604 -6.59676,9.522024 -2.23872,1.79098 -4.74609,1.79098 -1.910375,0 -2.895412,-1.25369 -0.358195,-0.50744 -0.417895,-0.95518 -0.0597,-0.4776 0.208948,-0.62684 3.432709,-1.28354 5.581879,-3.9103 1.88052,-2.35812 3.76105,-5.760978 l 3.373,-6.029621 -1.88052,0.268646 q -1.79098,0.328346 -1.79098,-0.567143 0,-0.895488 1.07459,-1.701427 1.88052,-1.402932 3.6715,-1.850676 l 1.28353,-0.298496 q 4.89534,-8.089244 7.46241,-11.313002 2.59691,-3.223758 4.71623,-5.37293 2.14918,-2.149172 4.5073,-3.7909 5.16398,-3.552104 10.17871,-3.552104 1.52233,0 2.05962,0.626842 0.89549,0.985037 0.56715,2.119322 -0.32835,1.104436 -1.07459,3.193909 -4.77594,13.014429 -5.82067,16.118789 0.47759,-0.02985 0.86564,-0.02985 h 0.65669 q 3.34315,0 3.58195,0.656691 0.0597,0.208948 0.0597,0.77609 0,0.537293 -0.3582,1.253684 -0.32834,0.71639 -1.10443,1.223834 -1.58203,1.074586 -5.31323,1.253683 -2.02977,7.014659 -2.32827,9.701127 -0.26865,2.68646 0.1791,3.64165 0.47759,0.92534 1.31338,0.92534 0.86564,0 1.40293,-0.14925 0.53729,-0.1791 0.95519,-0.38805 l 0.77609,-0.35819 q 0.29849,-0.1791 0.59699,-0.1791 0.32835,0 0.53729,0.4179 0.20895,0.38804 0.20895,1.04473 0,0.65669 -0.56714,1.58203 -0.53729,0.89549 -1.43278,1.61188 -2.08948,1.67158 -4.71624,1.67158 -4.0297,0 -5.37293,-3.58196 -0.47759,-1.25368 -0.47759,-2.23872 z m -5.96993,-16.656081 q 5.31323,-0.686542 9.85037,-0.80594 0.83579,-2.567066 1.79098,-5.074434 l 1.85068,-4.775937 q 0.95518,-2.26857 1.88052,-4.298344 l 1.73128,-3.671502 q -6.20872,1.611879 -12.26819,10.71601 -1.28353,1.910375 -2.50737,3.940148 z"
         style="font-style:normal;font-variant:normal;font-weight:normal;font-stretch:normal;font-family:Courgette;-inkscape-font-specification:Courgette;fill:#f03500;fill-opacity:1;stroke-width:1.52831"
         id="path1029" />
      <path
         d="m 147.83335,98.087904 -0.26865,2.298416 q 0,3.61181 2.41782,4.92519 0.83579,0.44774 1.99993,0.44774 1.16413,0 2.08947,-0.38804 0.92534,-0.4179 1.52233,-1.07459 1.25368,-1.34323 1.25368,-3.10436 0,-1.761124 -0.71639,-3.193905 -0.71639,-1.432781 -1.79097,-2.865563 l -2.38797,-2.925261 q -2.89542,-3.462555 -3.88045,-6.298268 -0.98504,-2.865562 -0.98504,-5.253531 0,-2.387969 0.56714,-4.507291 0.59699,-2.149172 1.64173,-4.059547 1.04474,-1.940225 2.50737,-3.552103 1.46263,-1.611879 3.25361,-2.776014 3.7312,-2.507367 7.4027,-2.507367 3.6715,0 5.73112,1.014886 2.05963,1.014887 3.31331,2.567067 2.32827,2.925262 2.32827,7.074357 0,3.8506 -2.17902,7.253455 -1.99993,3.10436 -4.47744,3.940149 -0.5373,0.268646 -1.49248,0.268646 -0.92534,0 -1.58203,-0.268646 -0.62684,-0.298496 -1.10444,-0.77609 -1.04473,-1.044736 -1.04473,-2.26857 0,-0.835789 0.50744,-1.104436 2.26857,-1.223834 3.94015,-3.552103 1.82082,-2.537217 1.91037,-5.044584 0.0896,-2.537217 -1.22383,-3.731202 -1.28353,-1.223834 -3.43271,-1.223834 -2.14917,0 -3.88045,0.985038 -1.73127,0.955187 -2.98496,2.596916 -2.68646,3.522253 -2.68646,8.328041 0,3.193908 2.20887,6.746011 0.92534,1.52233 1.99992,3.014811 1.10444,1.462631 2.05963,3.01481 2.17902,3.611803 2.17902,6.477366 0,2.865562 -1.04474,4.835632 -1.01489,1.97008 -2.71631,3.43271 -3.6715,3.16406 -8.35789,3.16406 -4.41775,0 -6.80571,-2.62677 -1.91038,-2.11932 -1.91038,-4.59684 0,-2.68646 1.52233,-4.537138 1.16414,-1.402932 2.23872,-1.671578 2.35812,-0.626842 2.35812,1.52233 z"
         style="font-style:normal;font-variant:normal;font-weight:normal;font-stretch:normal;font-family:Courgette;-inkscape-font-specification:Courgette;fill:#f03500;fill-opacity:1;stroke-width:1.52831"
         id="path1031" />
      <path
         d="m 191.59287,102.92354 q 0,-4.029697 2.29842,-12.357738 -7.19375,0.179098 -11.0145,0.417895 -1.16414,2.119322 -2.11932,4.029697 l -1.85068,3.671502 q -3.6715,7.223604 -6.59676,9.522024 -2.23872,1.79098 -4.74609,1.79098 -1.91038,0 -2.89541,-1.25369 -0.3582,-0.50744 -0.4179,-0.95518 -0.0597,-0.4776 0.20895,-0.62684 3.4327,-1.28354 5.58188,-3.9103 1.88052,-2.35812 3.76105,-5.760978 l 3.373,-6.029621 -1.88052,0.268646 q -1.79098,0.328346 -1.79098,-0.567143 0,-0.895488 1.07459,-1.701427 1.88052,-1.402932 3.6715,-1.850676 l 1.28353,-0.298496 q 4.89534,-8.089244 7.4624,-11.313002 2.59692,-3.223758 4.71624,-5.37293 2.14917,-2.149172 4.50729,-3.7909 5.16399,-3.552104 10.17872,-3.552104 1.52233,0 2.05962,0.626842 0.89549,0.985037 0.56715,2.119322 -0.32835,1.104436 -1.07459,3.193909 -4.77594,13.014429 -5.82067,16.118789 0.47759,-0.02985 0.86563,-0.02985 h 0.6567 q 3.34315,0 3.58195,0.656691 0.0597,0.208948 0.0597,0.77609 0,0.537293 -0.3582,1.253684 -0.32834,0.71639 -1.10443,1.223834 -1.58203,1.074586 -5.31323,1.253683 -2.02978,7.014659 -2.32827,9.701127 -0.26865,2.68646 0.1791,3.64165 0.47759,0.92534 1.31338,0.92534 0.86564,0 1.40293,-0.14925 0.53729,-0.1791 0.95519,-0.38805 l 0.77609,-0.35819 q 0.29849,-0.1791 0.59699,-0.1791 0.32835,0 0.53729,0.4179 0.20895,0.38804 0.20895,1.04473 0,0.65669 -0.56714,1.58203 -0.5373,0.89549 -1.43278,1.61188 -2.08948,1.67158 -4.71624,1.67158 -4.0297,0 -5.37293,-3.58196 -0.4776,-1.25368 -0.4776,-2.23872 z m -5.96992,-16.656081 q 5.31323,-0.686542 9.85037,-0.80594 0.83579,-2.567066 1.79098,-5.074434 l 1.85068,-4.775937 q 0.95518,-2.26857 1.88052,-4.298344 l 1.73128,-3.671502 q -6.20872,1.611879 -12.26819,10.71601 -1.28353,1.910375 -2.50737,3.940148 z"
         style="font-style:normal;font-variant:normal;font-weight:normal;font-stretch:normal;font-family:Courgette;-inkscape-font-specification:Courgette;fill:#f03500;fill-opacity:1;stroke-width:1.52831"
         id="path1033" />
    </g>
    <g
       aria-label="DI"
       id="text843-4"
       style="font-style:normal;font-weight:normal;font-size:27.4489px;line-height:1.25;font-family:sans-serif;fill:#000000;fill-opacity:1;stroke:none;stroke-width:0.686225">
      <path
         d="m 54.188633,100.15616 q 0,3.75278 -1.326876,6.51375 -1.326875,2.74757 -3.860001,4.20847 -2.519723,1.46091 -5.977642,1.46091 h -6.312711 l 4.141461,-19.594872 h 5.575557 q 3.699169,0 5.722989,1.943403 2.037223,1.930001 2.037223,5.468339 z m -10.373754,7.84063 q 1.474306,0 2.626945,-0.9382 1.166042,-0.93819 1.809376,-2.66715 0.643334,-1.74237 0.643334,-3.96723 0,-1.675345 -0.723751,-2.533124 -0.72375,-0.871181 -2.02382,-0.871181 h -0.951598 l -2.305278,10.976885 z"
         style="font-style:italic;font-variant:normal;font-weight:800;font-stretch:normal;font-family:'Open Sans';-inkscape-font-specification:'Open Sans Ultra-Bold Italic';fill:#41414d;fill-opacity:1;stroke-width:0.686225"
         id="path1022" />
      <path
         d="m 55.448495,112.33929 4.14146,-19.594872 H 64.91086 L 60.7694,112.33929 Z"
         style="font-style:italic;font-variant:normal;font-weight:800;font-stretch:normal;font-family:'Open Sans';-inkscape-font-specification:'Open Sans Ultra-Bold Italic';fill:#41414d;fill-opacity:1;stroke-width:0.686225"
         id="path1024" />
    </g>
  </g>
</svg>
